<svg width="24" height="24" viewBox="0 0 24 24" fill="none" xmlns="http://www.w3.org/2000/svg">
<path d="M0 20.0833C0.043 20.6133 0.23 21.1463 0.718 21.8613C1.298 22.7103 2.294 23.1763 3.021 22.4283C3.511 21.9233 8.815 12.6523 11.371 9.13831C11.4411 9.03785 11.5345 8.9558 11.6431 8.89915C11.7518 8.84249 11.8725 8.81291 11.995 8.81291C12.1175 8.81291 12.2382 8.84249 12.3469 8.89915C12.4555 8.9558 12.5489 9.03785 12.619 9.13831C15.175 12.6523 20.479 21.9233 20.969 22.4283C21.696 23.1763 22.692 22.7103 23.272 21.8613C23.842 21.0263 24 20.4413 24 19.8153C24 19.3893 15.74 4.01731 14.908 2.73731C14.108 1.50731 13.864 1.23931 12.511 1.19531H11.479C10.126 1.23931 9.882 1.50631 9.081 2.73731C8.267 3.99031 0.33 18.7573 0 19.7693V20.0833Z" fill="#9F9D8D"/>
</svg>
